# xmcd
# 
# Track frame offsets:
#     183
#     21155
#     49360
# 
# Disc length: 1084
# 
# Revision: 0
# Processed by: cddbd v1.5.2PL0 Copyright (c) Steve Scherf et al.
# Submitted via: fre:ac v1.0.17
# 
DISCID=21043a03
DTITLE=New World Destruction - New World Destruction
DYEAR=1992
DGENRE=
TTITLE0=Subway 1.0
TTITLE1=Chameleon
TTITLE2=Subway 2.0
EXTD=
EXTT0=
EXTT1=
EXTT2=
PLAYORDER=
